<svg width="139" height="44" viewBox="0 0 139 44" fill="none" xmlns="http://www.w3.org/2000/svg">
<path fill-rule="evenodd" clip-rule="evenodd" d="M0 43.9854L7.54402 41.5806C7.54402 41.3364 9.13186 34.3507 9.33564 33.3529C9.37229 33.1721 9.44847 32.9464 9.44847 32.762C9.56654 32.7924 9.75269 33.0348 9.95123 33.2247C10.3545 33.6099 10.9415 33.9606 11.4272 34.2252C11.5334 34.2832 11.6548 34.3195 11.78 34.3775C12.3347 34.6312 13.5511 34.9181 14.2077 34.9249C14.3996 34.9267 14.521 34.9176 14.7014 34.9444C14.909 34.9747 14.969 34.9276 15.1604 34.9222C16.7402 34.8773 17.7681 34.5497 19.1164 33.9126C20.1363 33.4318 21.1771 32.5708 21.9645 31.8131L22.8887 30.7763C23.531 29.977 23.9642 29.3172 24.4751 28.4508C25.4621 26.7769 26.1667 24.7292 26.6605 22.864C26.9247 21.8653 27.1199 20.7007 27.2404 19.5819C27.2718 19.291 27.2723 18.9666 27.3099 18.7069C27.3522 18.4079 27.2922 18.063 27.3413 17.7603C27.4003 17.3915 27.2347 15.5635 27.1623 15.1013C27.1237 14.8543 27.0742 14.5367 27.0109 14.2693C26.8771 13.7002 26.7524 13.2846 26.5733 12.7694C25.9725 11.0393 24.6513 9.29336 22.7835 8.70835C21.5399 8.31864 20.5938 8.25928 19.2683 8.43963C18.1442 8.59235 17.2415 8.96029 16.2717 9.42112L15.0304 10.157C14.8147 10.3061 14.6534 10.4198 14.4448 10.5757L13.8797 11.0134C13.9206 10.5471 14.3482 8.40333 14.3563 8.08568H7.87352C7.7302 8.08568 7.74545 8.29277 7.68784 8.57099C7.64833 8.75813 7.60737 8.91403 7.56548 9.11701C7.48263 9.51443 7.40169 9.86016 7.32172 10.244C6.69467 13.2325 5.99765 16.2277 5.36824 19.2248L2.92769 30.4595C2.60345 31.9494 2.25684 33.4679 1.94404 34.961C1.39793 37.5725 0.773284 40.236 0.22908 42.8439C0.188144 43.0401 0.155279 43.2123 0.110533 43.3926C0.0715033 43.5485 8.40556e-05 43.8072 8.40556e-05 43.9854M33.5956 11.0483L35.0606 16.7294C35.1996 16.6985 35.5229 16.491 35.6829 16.4153C35.9029 16.3116 36.1223 16.2073 36.3423 16.1022C37.1936 15.6953 38.3006 15.3677 39.2875 15.2109C39.5837 15.1638 39.8208 15.1493 40.1298 15.1058L41.0668 15.0564C41.8281 15.0564 42.607 15.1343 43.2645 15.4742C44.1753 15.9454 44.1796 16.8834 44.1796 17.7408C44.1796 18.14 44.0692 18.4323 44.0692 18.7862C43.4445 18.647 43.075 18.4531 42.0885 18.2659C40.3679 17.9392 38.2282 17.908 36.5113 18.2845C35.7443 18.4522 35.1596 18.6149 34.4902 18.8709C33.5104 19.2447 32.7691 19.6376 31.953 20.2199C31.6935 20.4052 31.4764 20.5833 31.2265 20.7827L30.2581 21.7434C30.1557 21.8635 30.0643 21.9708 29.9652 22.0918C29.9119 22.1562 29.88 22.2106 29.8295 22.2767C29.7772 22.3438 29.7457 22.3818 29.6919 22.4589C29.5939 22.5994 29.5229 22.6945 29.432 22.8395C29.3439 22.9827 29.2677 23.0856 29.1887 23.2347C28.2479 24.9997 27.9561 26.1851 27.9561 28.4055C27.9561 29.7572 28.3993 31.306 29.1959 32.3143C30.0091 33.3443 30.9513 33.9274 32.4106 34.3439C34.4531 34.9257 37.2703 34.6584 39.359 33.9954C39.7203 33.8808 40.0065 33.7793 40.3498 33.6488L41.2858 33.2505C41.2858 33.4213 41.2301 33.6234 41.1906 33.7865C41.1444 33.9778 41.1106 34.1513 41.0668 34.3307H47.5115C47.5115 34.115 48.5165 29.7821 48.6318 29.2275L49.2031 26.6699C49.3026 26.2707 49.4002 25.8149 49.4864 25.4057C49.9272 23.2904 50.4648 21.1416 50.9081 19.0214C51.0204 18.4844 51.2218 17.6225 51.2832 17.0783C51.327 16.6922 51.4327 16.0143 51.4308 15.6495L51.4665 14.9205C51.456 14.7854 51.4294 14.7514 51.4289 14.5697C51.4275 12.5134 50.5862 10.6618 48.9184 9.60557C47.6024 8.77179 45.8679 8.37349 43.7016 8.36579C43.5435 8.36533 43.444 8.33587 43.345 8.34131C43.2612 8.34539 43.1245 8.36579 42.9712 8.36533C40.6911 8.35355 37.675 8.99475 35.6953 9.94453C35.0116 10.2726 34.7692 10.3773 34.1203 10.7457C33.9356 10.8503 33.7723 10.9596 33.5956 11.0484M38.2101 28.8238C36.3857 28.8238 34.8045 28.4055 34.8045 26.4883C34.8045 23.9987 37.6107 23.1078 39.7113 23.1078C40.5607 23.1078 40.872 23.0992 41.7519 23.2225L43.0074 23.4563C43.0041 23.595 42.946 23.8152 42.9117 23.9584L42.5656 25.5099C42.4932 25.8407 42.4175 26.167 42.3389 26.5154C42.2656 26.8412 42.1918 27.1933 42.1061 27.5482C41.9233 28.3031 42.0523 28.2052 41.6314 28.3162C41.2629 28.4132 40.9653 28.4843 40.5687 28.5591C39.8508 28.6964 39.0462 28.8238 38.2101 28.8238ZM52.4711 24.2583C52.4711 22.3307 52.8896 20.2734 53.511 18.4853L53.8895 17.5215C53.9685 17.3466 54.029 17.2102 54.109 17.033C54.1508 16.9397 54.1904 16.8807 54.2289 16.7987C54.5094 16.1997 54.7222 15.8358 55.0783 15.2721C55.4326 14.7125 56.0843 13.8166 56.5457 13.3227C57.5041 12.2981 57.6365 12.1753 58.6715 11.3384C58.7411 11.2818 58.8144 11.236 58.8806 11.1884C59.7033 10.5889 60.3222 10.2055 61.2602 9.75875C64.3749 8.27608 68.2871 7.79845 71.609 9.1112C71.9185 9.23355 72.2718 9.42432 72.5327 9.59152C73.3159 10.0922 73.742 10.4683 74.3286 11.2274C74.4186 11.3434 74.5252 11.4979 74.6019 11.6298C74.8566 12.0661 75.3598 13.1201 75.3598 13.5928C75.3598 13.6494 74.708 14.093 74.6066 14.1651C74.3414 14.3541 74.1096 14.5104 73.8477 14.698C73.4639 14.9726 69.4941 17.8324 69.2808 17.8799C69.2808 17.6017 69.0799 17.0693 68.9932 16.8635C68.6228 15.9872 67.9301 15.3369 66.9079 15.0836C64.732 14.5457 62.6076 15.8743 61.4744 17.3171C60.2923 18.8243 59.539 20.9445 59.539 23.0385C59.539 24.5058 59.5562 25.8652 60.3375 27.0542C60.9059 27.9202 61.842 28.3706 62.9818 28.3706C64.3892 28.3706 65.7238 27.661 66.6717 26.7588C66.9645 26.4796 67.2568 26.1869 67.4858 25.8611C67.7125 26.0057 67.8339 26.138 68.0258 26.3233L70.6263 28.6584C70.7368 28.7508 70.7915 28.7789 70.901 28.8849L71.6604 29.5905L70.6449 30.7147C70.1545 31.1787 69.7498 31.5539 69.2156 31.9686C69.1071 32.0533 69.0171 32.119 68.9095 32.2001C68.6952 32.3632 68.5048 32.4887 68.281 32.6478C65.5367 34.6067 61.2888 35.5987 58.0331 34.4749C57.4127 34.2605 57.1042 34.1106 56.5476 33.797C56.182 33.5908 55.6287 33.1703 55.3188 32.8753C54.6565 32.2441 54.3556 31.8335 53.9014 31.0881C53.5519 30.5144 53.152 29.4817 52.9763 28.8315C52.5169 27.129 52.4712 26.0827 52.4712 24.2584M80.2 2.40472L79.3125 6.36925C79.0369 7.69061 78.7017 9.0156 78.4217 10.366C78.2822 11.0362 78.1199 11.7032 77.9756 12.3462C77.5223 14.3609 77.12 16.3465 76.6339 18.354C76.1573 20.3206 75.7859 22.3788 75.3003 24.3345L74.8499 26.3465C74.5695 27.6778 74.2395 28.9933 73.9596 30.3436C73.9315 30.4805 73.1421 34.1663 73.0592 34.3308H80.09C80.0976 34.0254 80.5028 32.4222 80.5933 31.9872C80.7118 31.4217 81.5755 27.4109 81.6474 27.2732C81.735 27.1023 82.8186 26.0574 83.0848 25.7832L84.0246 24.7959C84.1036 24.698 84.167 24.6472 84.2565 24.5634C84.4317 24.3989 84.833 23.9095 84.9978 23.8048C85.0049 24.122 87.5835 33.2243 87.8545 34.3309H95.1419C95.1157 34.0354 91.2206 21.1114 90.9744 20.2771C90.8735 19.9346 90.7802 19.6002 90.6783 19.2694C90.5754 18.9377 90.4626 18.5978 90.3807 18.2634C90.5826 17.9761 91.3182 17.3082 91.6171 17.0005L97.5133 10.971C97.6338 10.855 97.6943 10.7612 97.8242 10.6388C98.0523 10.4236 98.2194 10.2269 98.447 10.0117L99.1974 9.22728C99.5073 8.89195 100.057 8.43883 100.305 8.08581H93.1274C92.6032 8.08309 92.6598 8.13883 92.3304 8.47779L89.4375 11.4404C89.309 11.58 89.1685 11.6856 89.0347 11.8233L88.2668 12.6263C88.133 12.7582 87.9854 12.8728 87.8649 13.0106C87.1826 13.7873 86.2861 14.5893 85.5562 15.3787C85.4267 15.5178 85.2868 15.6243 85.153 15.7616C85.0706 15.8468 85.0577 15.8862 84.9711 15.9723C84.6835 16.2564 84.2755 16.7458 83.9722 16.9389C83.9774 16.7046 85.8795 8.30288 86.0809 7.44373C86.3313 6.37341 86.5261 5.31533 86.7917 4.25227C87.1436 2.84661 87.3993 1.40789 87.744 0C87.5435 0.0158667 85.3272 0.760827 84.9382 0.88408L81.1665 2.10395C80.8537 2.20272 80.5037 2.33731 80.2 2.40483M83.9351 16.9733C83.9394 16.9702 83.9465 16.9792 83.9465 16.9842C83.9465 16.986 83.9508 16.9883 83.9508 16.9883L83.9351 16.9733ZM14.612 28.4056C13.0842 28.4056 12.0386 27.9298 11.2583 26.7181C10.8702 26.1155 10.9131 26.1821 11.1331 25.3039C11.4259 24.1348 11.7072 22.6625 11.991 21.4499L12.8509 17.5977C12.8709 17.5021 12.9047 17.3127 12.9371 17.2271C13.0261 16.9905 14.0074 16.1758 14.1811 16.0407C16.2936 14.394 19.5636 14.211 20.2735 17.3018C20.9038 20.0447 20.014 24.2734 18.3533 26.4245C18.1153 26.7335 17.8567 27.0226 17.553 27.266C17.293 27.4735 17.3021 27.5247 16.8712 27.768C16.2127 28.1392 15.5176 28.4056 14.612 28.4056Z" fill="white"/>
<path fill-rule="evenodd" clip-rule="evenodd" d="M93.118 18.7161C93.1975 19.0401 93.3113 19.3841 93.4065 19.6963C94.4987 23.2593 95.5257 26.879 96.6098 30.4498C96.9112 31.4426 97.5459 33.455 97.7687 34.3658C97.9306 34.369 98.18 34.4415 98.351 34.4736C101.132 34.9979 104.004 34.3522 106.412 33.1111C106.621 33.0032 106.799 32.8913 107.01 32.7735C107.993 32.2206 109.137 31.2573 109.918 30.4534C110.01 30.3596 110.036 30.307 110.138 30.2096C110.225 30.1258 110.275 30.0537 110.357 29.9649C110.947 29.335 111.733 28.1958 112.136 27.4763C112.2 27.363 112.249 27.2995 112.308 27.1863C112.362 27.083 112.407 26.9969 112.466 26.8836C112.582 26.6633 112.673 26.4567 112.784 26.2451C112.887 26.0484 112.973 25.8273 113.066 25.6075C113.551 24.4529 113.897 23.3133 114.154 22.0073C114.829 18.5698 114.728 13.6573 112.501 10.8292C112.105 10.3258 111.622 9.86264 111.094 9.48472C109.823 8.57389 108.049 8.05144 106.265 8.05144C105.501 8.05144 105.131 8.04963 104.358 8.15339C104.085 8.19053 103.269 8.2916 103.123 8.40715L101.348 10.2374C101.261 10.3203 101.252 10.3407 101.18 10.4263L96.3489 15.3787C96.2637 15.4603 96.257 15.4852 96.1833 15.569L95.2877 16.4943C95.1644 16.6267 95.0444 16.7051 94.9278 16.8487L93.118 18.7161L93.118 18.7161ZM125.588 10.4912C125.588 10.266 125.992 8.35824 125.992 8.08544H119.436C119.305 8.62016 119.218 9.15168 119.084 9.70269C118.951 10.2528 118.856 10.7644 118.731 11.3186C118.492 12.3807 118.241 13.5113 118.017 14.5771C117.336 17.8157 116.56 21.1214 115.881 24.3595C115.77 24.8888 115.642 25.4584 115.527 25.9741L113.843 33.7124C113.807 33.8773 113.705 34.0522 113.869 34.0522H120.682C120.833 34.0522 120.888 33.5719 120.941 33.3231L121.494 30.8526C121.803 29.6097 122.119 28.0445 122.412 26.7413C122.469 26.4816 122.541 26.1998 122.601 25.9111L123.523 21.8038C123.592 21.5047 123.634 21.2655 123.706 20.9682L124.439 17.6915C124.586 17.0839 124.689 16.9869 125.18 16.4105L125.834 15.7779C126.906 14.9206 128.233 14.5594 129.682 14.8553C130.874 15.0991 131.521 15.9238 131.521 17.1129C131.521 17.7722 131.52 17.9381 131.384 18.5861C131.029 20.2735 130.581 22.0444 130.231 23.7265C129.809 25.7498 129.273 27.8745 128.845 29.901L128.033 33.5202C128.002 33.6675 127.932 33.8782 127.932 34.0522H134.817C134.997 34.0522 135.099 33.2389 135.176 32.9298C135.467 31.7562 135.716 30.4398 136.003 29.2562C136.573 26.9012 137.094 24.2902 137.652 21.9026C137.748 21.4921 137.841 21.0947 137.927 20.7004C138.552 17.8275 139.702 13.9047 138.382 11.1061C138.281 10.8917 138.23 10.7753 138.115 10.5931L137.643 9.92744C137.376 9.61432 136.955 9.2568 136.604 9.03384C135.323 8.22045 133.982 8.05144 132.363 8.05144C130.905 8.05144 129.564 8.40715 128.507 8.80728C127.69 9.11723 126.445 9.80283 125.765 10.3792C125.667 10.4613 125.721 10.4572 125.588 10.4911M101.797 28.0572C100.484 28.0572 99.7378 27.5877 99.2455 26.6515C98.1485 24.5625 98.7113 20.2985 99.7583 18.3092C100.257 17.3617 100.834 16.377 101.745 15.7031C102.653 15.0321 103.446 14.6727 104.69 14.6727C108.5 14.6727 107.838 20.3827 107.261 22.5918C107.134 23.0803 106.987 23.4976 106.803 23.934C106.441 24.7959 106.031 25.4806 105.444 26.1956L104.763 26.8722C104.663 26.9456 104.608 27.0095 104.507 27.0815C103.842 27.5627 102.962 28.0572 101.797 28.0572Z" fill="#FFDA45"/>
</svg>
